<svg width="24" height="24" viewBox="0 0 24 24" fill="none" xmlns="http://www.w3.org/2000/svg">
<path d="M0 15.9984H24V24H0V15.9984Z" fill="#1EB53A"/>
<path d="M0 0H24V8.00156H0V0Z" fill="#0099B5"/>
<path d="M0 7.67813H24V16.3219H0V7.67813Z" fill="#CE1126"/>
<path d="M0 8.15625H24V15.8438H0V8.15625Z" fill="white"/>
<path d="M6.72187 6.71719C8.31142 6.71719 9.6 5.42861 9.6 3.83906C9.6 2.24952 8.31142 0.960938 6.72187 0.960938C5.13233 0.960938 3.84375 2.24952 3.84375 3.83906C3.84375 5.42861 5.13233 6.71719 6.72187 6.71719Z" fill="white"/>
<path d="M7.67813 6.71719C9.26767 6.71719 10.5563 5.42861 10.5563 3.83906C10.5563 2.24952 9.26767 0.960938 7.67813 0.960938C6.08858 0.960938 4.8 2.24952 4.8 3.83906C4.8 5.42861 6.08858 6.71719 7.67813 6.71719Z" fill="#0099B5"/>
<path d="M13.0547 5.56462L12.8723 6.11182L13.1507 6.20782" fill="white"/>
<path d="M13.0547 5.56462L13.2371 6.11182L12.9587 6.20782" fill="white"/>
<path d="M13.6025 5.96263L13.0257 5.95825L13.0204 6.25269" fill="white"/>
<path d="M13.6025 5.96263L13.1384 6.3052L12.9611 6.07009" fill="white"/>
<path d="M12.5069 5.96263L12.9709 6.3052L13.1483 6.07009" fill="white"/>
<path d="M12.5069 5.96263L13.0837 5.95825L13.0889 6.25269" fill="white"/>
<path d="M13.3933 6.60662L13.2192 6.05671L12.9375 6.14269" fill="white"/>
<path d="M13.3932 6.60662L12.924 6.27114L13.0928 6.02983" fill="white"/>
<path d="M12.7161 6.60662L13.1853 6.27114L13.0165 6.02983" fill="white"/>
<path d="M12.7161 6.60662L12.8902 6.05671L13.1719 6.14269" fill="white"/>
<path d="M13.0547 5.56462L12.8723 6.11182L13.1507 6.20782" fill="white"/>
<path d="M13.0547 5.56462L13.2371 6.11182L12.9587 6.20782" fill="white"/>
<path d="M13.6025 5.96263L13.0257 5.95825L13.0204 6.25269" fill="white"/>
<path d="M13.6025 5.96263L13.1384 6.3052L12.9611 6.07009" fill="white"/>
<path d="M12.5069 5.96263L12.9709 6.3052L13.1483 6.07009" fill="white"/>
<path d="M12.5069 5.96263L13.0837 5.95825L13.0889 6.25269" fill="white"/>
<path d="M13.3933 6.60662L13.2192 6.05671L12.9375 6.14269" fill="white"/>
<path d="M13.3932 6.60662L12.924 6.27114L13.0928 6.02983" fill="white"/>
<path d="M12.7161 6.60662L13.1853 6.27114L13.0165 6.02983" fill="white"/>
<path d="M12.7161 6.60662L12.8902 6.05671L13.1719 6.14269" fill="white"/>
<path d="M13.0547 5.56462L12.8723 6.11182L13.1507 6.20782" fill="white"/>
<path d="M13.0547 5.56462L13.2371 6.11182L12.9587 6.20782" fill="white"/>
<path d="M13.6025 5.96263L13.0257 5.95825L13.0204 6.25269" fill="white"/>
<path d="M13.6025 5.96263L13.1384 6.3052L12.9611 6.07009" fill="white"/>
<path d="M12.5069 5.96263L12.9709 6.3052L13.1483 6.07009" fill="white"/>
<path d="M12.5069 5.96263L13.0837 5.95825L13.0889 6.25269" fill="white"/>
<path d="M13.3933 6.60662L13.2192 6.05671L12.9375 6.14269" fill="white"/>
<path d="M13.3932 6.60662L12.924 6.27114L13.0928 6.02983" fill="white"/>
<path d="M12.7161 6.60662L13.1853 6.27114L13.0165 6.02983" fill="white"/>
<path d="M12.7161 6.60662L12.8902 6.05671L13.1719 6.14269" fill="white"/>
<path d="M13.0547 5.56462L12.8723 6.11182L13.1507 6.20782" fill="white"/>
<path d="M13.0547 5.56462L13.2371 6.11182L12.9587 6.20782" fill="white"/>
<path d="M13.6025 5.96263L13.0257 5.95825L13.0204 6.25269" fill="white"/>
<path d="M13.6025 5.96263L13.1384 6.3052L12.9611 6.07009" fill="white"/>
<path d="M12.5069 5.96263L12.9709 6.3052L13.1483 6.07009" fill="white"/>
<path d="M12.5069 5.96263L13.0837 5.95825L13.0889 6.25269" fill="white"/>
<path d="M13.3933 6.60662L13.2192 6.05671L12.9375 6.14269" fill="white"/>
<path d="M13.3932 6.60662L12.924 6.27114L13.0928 6.02983" fill="white"/>
<path d="M12.7161 6.60662L13.1853 6.27114L13.0165 6.02983" fill="white"/>
<path d="M12.7161 6.60662L12.8902 6.05671L13.1719 6.14269" fill="white"/>
<path d="M13.0547 5.56462L12.8723 6.11182L13.1507 6.20782" fill="white"/>
<path d="M13.0547 5.56462L13.2371 6.11182L12.9587 6.20782" fill="white"/>
<path d="M13.6025 5.96263L13.0257 5.95825L13.0204 6.25269" fill="white"/>
<path d="M13.6025 5.96263L13.1384 6.3052L12.9611 6.07009" fill="white"/>
<path d="M12.5069 5.96263L12.9709 6.3052L13.1483 6.07009" fill="white"/>
<path d="M12.5069 5.96263L13.0837 5.95825L13.0889 6.25269" fill="white"/>
<path d="M13.3933 6.60662L13.2192 6.05671L12.9375 6.14269" fill="white"/>
<path d="M13.3932 6.60662L12.924 6.27114L13.0928 6.02983" fill="white"/>
<path d="M12.7161 6.60662L13.1853 6.27114L13.0165 6.02983" fill="white"/>
<path d="M12.7161 6.60662L12.8902 6.05671L13.1719 6.14269" fill="white"/>
<path d="M13.0547 5.56462L12.8723 6.11182L13.1507 6.20782" fill="white"/>
<path d="M13.0547 5.56462L13.2371 6.11182L12.9587 6.20782" fill="white"/>
<path d="M13.6025 5.96263L13.0257 5.95825L13.0204 6.25269" fill="white"/>
<path d="M13.6025 5.96263L13.1384 6.3052L12.9611 6.07009" fill="white"/>
<path d="M12.5069 5.96263L12.9709 6.3052L13.1483 6.07009" fill="white"/>
<path d="M12.5069 5.96263L13.0837 5.95825L13.0889 6.25269" fill="white"/>
<path d="M13.3933 6.60662L13.2192 6.05671L12.9375 6.14269" fill="white"/>
<path d="M13.3932 6.60662L12.924 6.27114L13.0928 6.02983" fill="white"/>
<path d="M12.7161 6.60662L13.1853 6.27114L13.0165 6.02983" fill="white"/>
<path d="M12.7161 6.60662L12.8902 6.05671L13.1719 6.14269" fill="white"/>
<path d="M13.0547 5.56462L12.8723 6.11182L13.1507 6.20782" fill="white"/>
<path d="M13.0547 5.56462L13.2371 6.11182L12.9587 6.20782" fill="white"/>
<path d="M13.6025 5.96263L13.0257 5.95825L13.0204 6.25269" fill="white"/>
<path d="M13.6025 5.96263L13.1384 6.3052L12.9611 6.07009" fill="white"/>
<path d="M12.5069 5.96263L12.9709 6.3052L13.1483 6.07009" fill="white"/>
<path d="M12.5069 5.96263L13.0837 5.95825L13.0889 6.25269" fill="white"/>
<path d="M13.3933 6.60662L13.2192 6.05671L12.9375 6.14269" fill="white"/>
<path d="M13.3932 6.60662L12.924 6.27114L13.0928 6.02983" fill="white"/>
<path d="M12.7161 6.60662L13.1853 6.27114L13.0165 6.02983" fill="white"/>
<path d="M12.7161 6.60662L12.8902 6.05671L13.1719 6.14269" fill="white"/>
<path d="M13.0547 5.56462L12.8723 6.11182L13.1507 6.20782" fill="white"/>
<path d="M13.0547 5.56462L13.2371 6.11182L12.9587 6.20782" fill="white"/>
<path d="M13.6025 5.96263L13.0257 5.95825L13.0204 6.25269" fill="white"/>
<path d="M13.6025 5.96263L13.1384 6.3052L12.9611 6.07009" fill="white"/>
<path d="M12.5069 5.96263L12.9709 6.3052L13.1483 6.07009" fill="white"/>
<path d="M12.5069 5.96263L13.0837 5.95825L13.0889 6.25269" fill="white"/>
<path d="M13.3933 6.60662L13.2192 6.05671L12.9375 6.14269" fill="white"/>
<path d="M13.3932 6.60662L12.924 6.27114L13.0928 6.02983" fill="white"/>
<path d="M12.7161 6.60662L13.1853 6.27114L13.0165 6.02983" fill="white"/>
<path d="M12.7161 6.60662L12.8902 6.05671L13.1719 6.14269" fill="white"/>
<path d="M13.0547 5.56462L12.8723 6.11182L13.1507 6.20782" fill="white"/>
<path d="M13.0547 5.56462L13.2371 6.11182L12.9587 6.20782" fill="white"/>
<path d="M13.6025 5.96263L13.0257 5.95825L13.0204 6.25269" fill="white"/>
<path d="M13.6025 5.96263L13.1384 6.3052L12.9611 6.07009" fill="white"/>
<path d="M12.5069 5.96263L12.9709 6.3052L13.1483 6.07009" fill="white"/>
<path d="M12.5069 5.96263L13.0837 5.95825L13.0889 6.25269" fill="white"/>
<path d="M13.3933 6.60662L13.2192 6.05671L12.9375 6.14269" fill="white"/>
<path d="M13.3932 6.60662L12.924 6.27114L13.0928 6.02983" fill="white"/>
<path d="M12.7161 6.60662L13.1853 6.27114L13.0165 6.02983" fill="white"/>
<path d="M12.7161 6.60662L12.8902 6.05671L13.1719 6.14269" fill="white"/>
<path d="M13.0547 5.56462L12.8723 6.11182L13.1507 6.20782" fill="white"/>
<path d="M13.0547 5.56462L13.2371 6.11182L12.9587 6.20782" fill="white"/>
<path d="M13.6025 5.96263L13.0257 5.95825L13.0204 6.25269" fill="white"/>
<path d="M13.6025 5.96263L13.1384 6.3052L12.9611 6.07009" fill="white"/>
<path d="M12.5069 5.96263L12.9709 6.3052L13.1483 6.07009" fill="white"/>
<path d="M12.5069 5.96263L13.0837 5.95825L13.0889 6.25269" fill="white"/>
<path d="M13.3933 6.60662L13.2192 6.05671L12.9375 6.14269" fill="white"/>
<path d="M13.3932 6.60662L12.924 6.27114L13.0928 6.02983" fill="white"/>
<path d="M12.7161 6.60662L13.1853 6.27114L13.0165 6.02983" fill="white"/>
<path d="M12.7161 6.60662L12.8902 6.05671L13.1719 6.14269" fill="white"/>
<path d="M13.0547 5.56462L12.8723 6.11182L13.1507 6.20782" fill="white"/>
<path d="M13.0547 5.56462L13.2371 6.11182L12.9587 6.20782" fill="white"/>
<path d="M13.6025 5.96263L13.0257 5.95825L13.0204 6.25269" fill="white"/>
<path d="M13.6025 5.96263L13.1384 6.3052L12.9611 6.07009" fill="white"/>
<path d="M12.5069 5.96263L12.9709 6.3052L13.1483 6.07009" fill="white"/>
<path d="M12.5069 5.96263L13.0837 5.95825L13.0889 6.25269" fill="white"/>
<path d="M13.3933 6.60662L13.2192 6.05671L12.9375 6.14269" fill="white"/>
<path d="M13.3932 6.60662L12.924 6.27114L13.0928 6.02983" fill="white"/>
<path d="M12.7161 6.60662L13.1853 6.27114L13.0165 6.02983" fill="white"/>
<path d="M12.7161 6.60662L12.8902 6.05671L13.1719 6.14269" fill="white"/>
<path d="M13.0547 5.56462L12.8723 6.11182L13.1507 6.20782" fill="white"/>
<path d="M13.0547 5.56462L13.2371 6.11182L12.9587 6.20782" fill="white"/>
<path d="M13.6025 5.96263L13.0257 5.95825L13.0204 6.25269" fill="white"/>
<path d="M13.6025 5.96263L13.1384 6.3052L12.9611 6.07009" fill="white"/>
<path d="M12.5069 5.96263L12.9709 6.3052L13.1483 6.07009" fill="white"/>
<path d="M12.5069 5.96263L13.0837 5.95825L13.0889 6.25269" fill="white"/>
<path d="M13.3933 6.60662L13.2192 6.05671L12.9375 6.14269" fill="white"/>
<path d="M13.3932 6.60662L12.924 6.27114L13.0928 6.02983" fill="white"/>
<path d="M12.7161 6.60662L13.1853 6.27114L13.0165 6.02983" fill="white"/>
<path d="M12.7161 6.60662L12.8902 6.05671L13.1719 6.14269" fill="white"/>
</svg>
